<?xml version="1.0" encoding="UTF-8" standalone="no"?>
<svg
   xmlns:dc="http://purl.org/dc/elements/1.1/"
   xmlns:cc="http://creativecommons.org/ns#"
   xmlns:rdf="http://www.w3.org/1999/02/22-rdf-syntax-ns#"
   xmlns:svg="http://www.w3.org/2000/svg"
   xmlns="http://www.w3.org/2000/svg"
   width="1080"
   height="1080"
   viewBox="0 0 285.75001 285.75001"
   version="1.1"
   id="svg8">
  <defs
     id="defs2">
    <marker
       style="overflow:visible"
       id="Arrow1Mend"
       refX="0"
       refY="0"
       orient="auto">
      <path
         transform="matrix(-0.4,0,0,-0.4,-4,0)"
         style="fill:#fa8f00;fill-opacity:1;fill-rule:evenodd;stroke:#fa8f00;stroke-width:1.00000003pt;stroke-opacity:1"
         d="M 0,0 5,-5 -12.5,0 5,5 Z"
         id="path5322" />
    </marker>
    <marker
       style="overflow:visible"
       id="Arrow1Mend-4"
       refX="0"
       refY="0"
       orient="auto">
      <path
         transform="matrix(-0.4,0,0,-0.4,-4,0)"
         style="fill:#fa8f00;fill-opacity:1;fill-rule:evenodd;stroke:#fa8f00;stroke-width:1.00000003pt;stroke-opacity:1"
         d="M 0,0 5,-5 -12.5,0 5,5 Z"
         id="path5322-5" />
    </marker>
  </defs>
  <metadata
     id="metadata5">
    <rdf:RDF>
      <cc:Work
         rdf:about="">
        <dc:format>image/svg+xml</dc:format>
        <dc:type
           rdf:resource="http://purl.org/dc/dcmitype/StillImage" />
        <dc:title></dc:title>
      </cc:Work>
    </rdf:RDF>
  </metadata>
  <rect
     style="fill:#c9ebfb;fill-opacity:1;stroke:none;stroke-width:18.2091732;stroke-linecap:round;stroke-miterlimit:4;stroke-dasharray:none;stroke-opacity:1;paint-order:markers stroke fill"
     id="rect7624"
     width="285.75"
     height="285.75"
     x="0.0084436871"
     y="-0.0035707499" />
  <g
     id="g152"
     transform="matrix(1.4552084,0,0,1.4552084,353.40658,-315.79146)" />
  <g
     id="g154"
     transform="matrix(1.4552084,0,0,1.4552084,353.40658,-315.79146)" />
  <g
     id="g156"
     transform="matrix(1.4552084,0,0,1.4552084,353.40658,-315.79146)" />
  <g
     id="g158"
     transform="matrix(1.4552084,0,0,1.4552084,353.40658,-315.79146)" />
  <g
     id="g160"
     transform="matrix(1.4552084,0,0,1.4552084,353.40658,-315.79146)" />
  <g
     id="g162"
     transform="matrix(1.4552084,0,0,1.4552084,353.40658,-315.79146)" />
  <g
     id="g164"
     transform="matrix(1.4552084,0,0,1.4552084,353.40658,-315.79146)" />
  <g
     id="g166"
     transform="matrix(1.4552084,0,0,1.4552084,353.40658,-315.79146)" />
  <g
     id="g168"
     transform="matrix(1.4552084,0,0,1.4552084,353.40658,-315.79146)" />
  <g
     id="g170"
     transform="matrix(1.4552084,0,0,1.4552084,353.40658,-315.79146)" />
  <g
     id="g172"
     transform="matrix(1.4552084,0,0,1.4552084,353.40658,-315.79146)" />
  <g
     id="g174"
     transform="matrix(1.4552084,0,0,1.4552084,353.40658,-315.79146)" />
  <g
     id="g176"
     transform="matrix(1.4552084,0,0,1.4552084,353.40658,-315.79146)" />
  <g
     id="g178"
     transform="matrix(1.4552084,0,0,1.4552084,353.40658,-315.79146)" />
  <g
     id="g180"
     transform="matrix(1.4552084,0,0,1.4552084,353.40658,-315.79146)" />
  <flowRoot
     style="font-style:normal;font-variant:normal;font-weight:500;font-stretch:normal;font-size:40px;line-height:1.25;font-family:Roboto;-inkscape-font-specification:'Roboto Medium';letter-spacing:0px;word-spacing:0px;fill:#000000;fill-opacity:1;stroke:none"
     id="flowRoot1041"
     xml:space="preserve"
     transform="matrix(1.4552084,0,0,1.4552084,353.40658,-315.79146)"><flowRegion
       id="flowRegion1043"><rect
         y="550.21259"
         x="1147.9391"
         height="40.43428"
         width="3.9448078"
         id="rect1045" /></flowRegion><flowPara
       id="flowPara1047" /></flowRoot>  <g
     style="fill:#000000;fill-opacity:1"
     id="g4376"
     transform="matrix(0.26458333,0,0,0.26458333,-108.52902,109.94032)" />
  <g
     style="fill:#000000;fill-opacity:1"
     id="g4378"
     transform="matrix(0.26458333,0,0,0.26458333,-108.52902,109.94032)" />
  <g
     style="fill:#000000;fill-opacity:1"
     id="g4380"
     transform="matrix(0.26458333,0,0,0.26458333,-108.52902,109.94032)" />
  <g
     style="fill:#000000;fill-opacity:1"
     id="g4382"
     transform="matrix(0.26458333,0,0,0.26458333,-108.52902,109.94032)" />
  <g
     style="fill:#000000;fill-opacity:1"
     id="g4384"
     transform="matrix(0.26458333,0,0,0.26458333,-108.52902,109.94032)" />
  <g
     style="fill:#000000;fill-opacity:1"
     id="g4386"
     transform="matrix(0.26458333,0,0,0.26458333,-108.52902,109.94032)" />
  <g
     style="fill:#000000;fill-opacity:1"
     id="g4388"
     transform="matrix(0.26458333,0,0,0.26458333,-108.52902,109.94032)" />
  <g
     style="fill:#000000;fill-opacity:1"
     id="g4390"
     transform="matrix(0.26458333,0,0,0.26458333,-108.52902,109.94032)" />
  <g
     style="fill:#000000;fill-opacity:1"
     id="g4392"
     transform="matrix(0.26458333,0,0,0.26458333,-108.52902,109.94032)" />
  <g
     style="fill:#000000;fill-opacity:1"
     id="g4394"
     transform="matrix(0.26458333,0,0,0.26458333,-108.52902,109.94032)" />
  <g
     style="fill:#000000;fill-opacity:1"
     id="g4396"
     transform="matrix(0.26458333,0,0,0.26458333,-108.52902,109.94032)" />
  <g
     style="fill:#000000;fill-opacity:1"
     id="g4398"
     transform="matrix(0.26458333,0,0,0.26458333,-108.52902,109.94032)" />
  <g
     style="fill:#000000;fill-opacity:1"
     id="g4400"
     transform="matrix(0.26458333,0,0,0.26458333,-108.52902,109.94032)" />
  <g
     style="fill:#000000;fill-opacity:1"
     id="g4402"
     transform="matrix(0.26458333,0,0,0.26458333,-108.52902,109.94032)" />
  <g
     style="fill:#000000;fill-opacity:1"
     id="g4404"
     transform="matrix(0.26458333,0,0,0.26458333,-108.52902,109.94032)" />
  <g
     style="fill:#294270;fill-opacity:1"
     id="g4591"
     transform="matrix(0.60854166,0,0,0.60854166,-174.64979,52.591281)" />
  <g
     style="fill:#294270;fill-opacity:1"
     id="g4593"
     transform="matrix(0.60854166,0,0,0.60854166,-174.64979,52.591281)" />
  <g
     style="fill:#294270;fill-opacity:1"
     id="g4595"
     transform="matrix(0.60854166,0,0,0.60854166,-174.64979,52.591281)" />
  <g
     style="fill:#294270;fill-opacity:1"
     id="g4597"
     transform="matrix(0.60854166,0,0,0.60854166,-174.64979,52.591281)" />
  <g
     style="fill:#294270;fill-opacity:1"
     id="g4599"
     transform="matrix(0.60854166,0,0,0.60854166,-174.64979,52.591281)" />
  <g
     style="fill:#294270;fill-opacity:1"
     id="g4601"
     transform="matrix(0.60854166,0,0,0.60854166,-174.64979,52.591281)" />
  <g
     style="fill:#294270;fill-opacity:1"
     id="g4603"
     transform="matrix(0.60854166,0,0,0.60854166,-174.64979,52.591281)" />
  <g
     style="fill:#294270;fill-opacity:1"
     id="g4605"
     transform="matrix(0.60854166,0,0,0.60854166,-174.64979,52.591281)" />
  <g
     style="fill:#294270;fill-opacity:1"
     id="g4607"
     transform="matrix(0.60854166,0,0,0.60854166,-174.64979,52.591281)" />
  <g
     style="fill:#294270;fill-opacity:1"
     id="g4609"
     transform="matrix(0.60854166,0,0,0.60854166,-174.64979,52.591281)" />
  <g
     style="fill:#294270;fill-opacity:1"
     id="g4611"
     transform="matrix(0.60854166,0,0,0.60854166,-174.64979,52.591281)" />
  <g
     style="fill:#294270;fill-opacity:1"
     id="g4613"
     transform="matrix(0.60854166,0,0,0.60854166,-174.64979,52.591281)" />
  <g
     style="fill:#294270;fill-opacity:1"
     id="g4615"
     transform="matrix(0.60854166,0,0,0.60854166,-174.64979,52.591281)" />
  <g
     style="fill:#294270;fill-opacity:1"
     id="g4617"
     transform="matrix(0.60854166,0,0,0.60854166,-174.64979,52.591281)" />
  <g
     style="fill:#294270;fill-opacity:1"
     id="g4619"
     transform="matrix(0.60854166,0,0,0.60854166,-174.64979,52.591281)" />
  <g
     style="fill:#294270;fill-opacity:1"
     transform="matrix(0.60854166,0,0,0.60854166,18.926271,21.415421)"
     id="g4806">
    <path
       style="fill:#294270;fill-opacity:1"
       id="path4808"
       d="M 202.531,0 C 90.676,0 0,90.678 0,202.535 0,314.393 90.676,405.07 202.531,405.07 314.39,405.07 405.07,314.392 405.07,202.535 405.07,90.678 314.391,0 202.531,0 Z m 40.661,312.198 c 0,8.284 -6.716,15 -15,15 l -27.629,0 c -8.284,0 -15,-6.716 -15,-15 l 0,-168.35 -17.1,9.231 c -4.069,2.197 -8.924,2.393 -13.155,0.536 -4.233,-1.858 -7.373,-5.565 -8.51,-10.046 l -5.459,-21.518 c -1.695,-6.683 1.383,-13.66 7.461,-16.913 l 47.626,-25.491 c 2.177,-1.166 4.608,-1.775 7.078,-1.775 l 24.688,0 c 8.284,0 15,6.716 15,15 l 0,219.326 z" />
  </g>
  <g
     style="fill:#294270;fill-opacity:1"
     transform="matrix(0.26458333,0,0,0.26458333,-114.28614,65.377747)"
     id="g4810" />
  <g
     style="fill:#294270;fill-opacity:1"
     transform="matrix(0.26458333,0,0,0.26458333,-114.28614,65.377747)"
     id="g4812" />
  <g
     style="fill:#294270;fill-opacity:1"
     transform="matrix(0.26458333,0,0,0.26458333,-114.28614,65.377747)"
     id="g4814" />
  <g
     style="fill:#294270;fill-opacity:1"
     transform="matrix(0.26458333,0,0,0.26458333,-114.28614,65.377747)"
     id="g4816" />
  <g
     style="fill:#294270;fill-opacity:1"
     transform="matrix(0.26458333,0,0,0.26458333,-114.28614,65.377747)"
     id="g4818" />
  <g
     style="fill:#294270;fill-opacity:1"
     transform="matrix(0.26458333,0,0,0.26458333,-114.28614,65.377747)"
     id="g4820" />
  <g
     style="fill:#294270;fill-opacity:1"
     transform="matrix(0.26458333,0,0,0.26458333,-114.28614,65.377747)"
     id="g4822" />
  <g
     style="fill:#294270;fill-opacity:1"
     transform="matrix(0.26458333,0,0,0.26458333,-114.28614,65.377747)"
     id="g4824" />
  <g
     style="fill:#294270;fill-opacity:1"
     transform="matrix(0.26458333,0,0,0.26458333,-114.28614,65.377747)"
     id="g4826" />
  <g
     style="fill:#294270;fill-opacity:1"
     transform="matrix(0.26458333,0,0,0.26458333,-114.28614,65.377747)"
     id="g4828" />
  <g
     style="fill:#294270;fill-opacity:1"
     transform="matrix(0.26458333,0,0,0.26458333,-114.28614,65.377747)"
     id="g4830" />
  <g
     style="fill:#294270;fill-opacity:1"
     transform="matrix(0.26458333,0,0,0.26458333,-114.28614,65.377747)"
     id="g4832" />
  <g
     style="fill:#294270;fill-opacity:1"
     transform="matrix(0.26458333,0,0,0.26458333,-114.28614,65.377747)"
     id="g4834" />
  <g
     style="fill:#294270;fill-opacity:1"
     transform="matrix(0.26458333,0,0,0.26458333,-114.28614,65.377747)"
     id="g4836" />
  <g
     style="fill:#294270;fill-opacity:1"
     transform="matrix(0.26458333,0,0,0.26458333,-114.28614,65.377747)"
     id="g4838" />
</svg>
